<svg width="15" height="15" viewBox="0 0 15 15" fill="none" xmlns="http://www.w3.org/2000/svg">
<path d="M10.8344 1.54314C11.0066 1.37094 11.211 1.23435 11.436 1.14116C11.6609 1.04796 11.9021 1 12.1456 1C12.3891 1 12.6303 1.04796 12.8552 1.14116C13.0802 1.23435 13.2846 1.37094 13.4568 1.54314C13.629 1.71533 13.7656 1.91976 13.8588 2.14474C13.952 2.36973 14 2.61086 14 2.85438C14 3.09791 13.952 3.33904 13.8588 3.56403C13.7656 3.78901 13.629 3.99343 13.4568 4.16563L4.60593 13.0166L1 14L1.98344 10.3941L10.8344 1.54314Z" stroke="white" stroke-linecap="round" stroke-linejoin="round"/>
</svg>
