<svg width="333" height="295" viewBox="0 0 333 295" fill="none" xmlns="http://www.w3.org/2000/svg">
<g clip-path="url(#clip0_196_6)">
<path d="M155.261 134.562C155.261 136.701 154.411 138.752 152.899 140.264C151.387 141.776 149.337 142.625 147.198 142.625C145.06 142.625 143.009 141.776 141.497 140.264C139.985 138.752 139.136 136.701 139.136 134.562C139.136 132.424 139.985 130.373 141.497 128.861C143.009 127.349 145.06 126.5 147.198 126.5C149.337 126.5 151.387 127.349 152.899 128.861C154.411 130.373 155.261 132.424 155.261 134.562Z" fill="#4D4D4D" fill-opacity="0.9"/>
<path d="M131.062 115.75C128.924 115.75 126.873 116.599 125.361 118.111C123.849 119.623 123 121.674 123 123.812V172.188C123 174.326 123.849 176.377 125.361 177.889C126.873 179.401 128.924 180.25 131.062 180.25H200.938C203.076 180.25 205.127 179.401 206.639 177.889C208.151 176.377 209 174.326 209 172.188V123.812C209 121.674 208.151 119.623 206.639 118.111C205.127 116.599 203.076 115.75 200.938 115.75H131.062ZM200.938 121.125C201.65 121.125 202.334 121.408 202.838 121.912C203.342 122.416 203.625 123.1 203.625 123.812V156.062L183.334 145.597C182.83 145.345 182.26 145.257 181.703 145.347C181.146 145.437 180.632 145.699 180.233 146.097L160.292 166.038L145.994 156.514C145.478 156.17 144.859 156.016 144.242 156.076C143.624 156.137 143.047 156.41 142.608 156.847L128.386 169.5V172.402L128.375 172.188V123.812C128.375 123.1 128.658 122.416 129.162 121.912C129.666 121.408 130.35 121.125 131.062 121.125H200.938Z" fill="#4D4D4D" fill-opacity="0.9"/>
</g>
<defs>
<clipPath id="clip0_196_6">
<rect width="86" height="86" fill="white" transform="translate(123 105)"/>
</clipPath>
</defs>
</svg>
