<svg width="23" height="23" viewBox="0 0 23 23" fill="none" xmlns="http://www.w3.org/2000/svg">
<path d="M13.7443 1.77468C12.9639 2.55507 12.5597 3.91529 12.854 4.97919C13.0099 5.54234 13.0353 6.22419 12.6221 6.63735L6.63735 12.6221C6.22419 13.0353 5.54234 13.0099 4.97919 12.854C3.91529 12.5597 2.55506 12.9639 1.77468 13.7443C0.741773 14.7773 0.741773 16.4519 1.77468 17.4848C2.8076 18.5177 4.48229 18.5177 5.51519 17.4848C4.48229 18.5177 4.48228 20.1924 5.51519 21.2253C6.54811 22.2582 8.22279 22.2582 9.25571 21.2253C10.0361 20.445 10.4404 19.0847 10.146 18.0208C9.99011 17.4577 9.9647 16.7759 10.3779 16.3627L16.3627 10.3779C16.7759 9.9647 17.4577 9.99011 18.0208 10.146C19.0847 10.4404 20.445 10.0361 21.2253 9.25571C22.2582 8.22279 22.2582 6.54811 21.2253 5.51519C20.1924 4.48229 18.5177 4.48229 17.4848 5.51519C18.5177 4.48229 18.5177 2.8076 17.4848 1.77468C16.4519 0.741773 14.7773 0.741773 13.7443 1.77468Z" stroke="#6BA0FD" stroke-width="2" stroke-linecap="round" stroke-linejoin="round"/>
</svg>
