<svg width="19" height="19" viewBox="0 0 19 19" fill="none" xmlns="http://www.w3.org/2000/svg">
<path d="M15.8703 3.1168C15.0415 2.28374 14.0544 1.62331 12.9665 1.17404C11.8786 0.724771 10.7117 0.495657 9.5339 0.500062C4.59882 0.500062 0.576846 4.5028 0.572325 9.41678C0.572325 10.9907 0.985937 12.5218 1.76683 13.8774L0.5 18.5L5.25088 17.2603C6.56459 17.9738 8.03739 18.3471 9.5339 18.3459H9.53842C14.4746 18.3459 18.4955 14.3431 18.5 9.42466C18.501 8.25248 18.2691 7.09168 17.8176 6.0091C17.366 4.92653 16.705 3.94356 15.8703 3.1168ZM9.5339 16.8361C8.19947 16.8351 6.88976 16.4777 5.74133 15.8011L5.47011 15.6391L2.65168 16.3749L3.40432 13.6378L3.22803 13.3554C2.48195 12.1745 2.08737 10.8073 2.09003 9.41228C2.09003 5.33305 5.43169 2.00531 9.53842 2.00531C10.5168 2.00356 11.4858 2.19462 12.3896 2.56746C13.2935 2.9403 14.1142 3.48756 14.8046 4.17767C15.4972 4.86521 16.0464 5.68241 16.4203 6.58216C16.7942 7.48191 16.9856 8.44644 16.9834 9.42016C16.9789 13.514 13.6372 16.8361 9.5339 16.8361ZM13.6192 11.2854C13.3965 11.174 12.297 10.6352 12.0902 10.5587C11.8845 10.4855 11.7342 10.4473 11.5873 10.67C11.437 10.8917 11.0075 11.3968 10.8787 11.5419C10.7499 11.6915 10.6165 11.7084 10.3928 11.5981C10.1701 11.4856 9.44801 11.2516 8.59367 10.49C7.92692 9.8994 7.48054 9.16816 7.34719 8.94653C7.21836 8.72378 7.33475 8.60453 7.44663 8.49316C7.54495 8.39416 7.66926 8.23216 7.78114 8.10391C7.89415 7.97566 7.93144 7.88116 8.0049 7.73266C8.07835 7.58191 8.04332 7.45366 7.98794 7.34229C7.93144 7.23091 7.48506 6.13179 7.29633 5.68854C7.11552 5.25092 6.93131 5.31167 6.79344 5.30605C6.66461 5.29817 6.51431 5.29817 6.36401 5.29817C6.25052 5.30105 6.13885 5.32721 6.03598 5.37502C5.93312 5.42284 5.84127 5.49127 5.7662 5.57604C5.56052 5.79879 4.98531 6.33767 4.98531 7.43679C4.98531 8.53591 5.78767 9.59228 5.90068 9.74191C6.01143 9.89153 7.47602 12.1404 9.72375 13.1079C10.2549 13.3385 10.673 13.4746 10.9996 13.5781C11.5364 13.7491 12.0212 13.7233 12.4077 13.6681C12.8371 13.6029 13.731 13.1281 13.9198 12.6073C14.1051 12.0853 14.1051 11.6398 14.0486 11.5464C13.9932 11.4519 13.8429 11.3968 13.6192 11.2854Z" fill="white"/>
</svg>
